<?xml version="1.0" encoding="UTF-8"?>
<svg width="23px" height="22px" viewBox="0 0 23 22" version="1.1" xmlns="http://www.w3.org/2000/svg" xmlns:xlink="http://www.w3.org/1999/xlink">
    <!-- Generator: Sketch 52.6 (67491) - http://www.bohemiancoding.com/sketch -->
    <title>supermarket copy</title>
    <desc>Created with Sketch.</desc>
    <g id="Page-1" stroke="none" stroke-width="1" fill="none" fill-rule="evenodd">
        <g id="Desktop-HD" transform="translate(-1352.000000, -74.000000)" fill="#636463">
            <g id="supermarket-copy" transform="translate(1352.000000, 74.000000)">
                <g id="Group">
                    <path d="M11.2489149,19.7623366 C11.2489149,18.5390426 10.2671441,17.5472537 9.05620661,17.5472537 C7.84505211,17.5472537 6.86328122,18.5388233 6.86328122,19.7623366 C6.86328122,20.9858498 7.84505211,21.9776387 9.05620661,21.9776387 C10.2664931,21.9763233 11.2476128,20.9851921 11.2489149,19.7623366 Z" id="Path"></path>
                    <path d="M19.3580729,19.5442044 C19.4774306,20.7615793 18.5972222,21.846321 17.3919271,21.9668965 C16.1868489,22.0874721 15.1132812,21.1980628 14.9939236,19.980688 C14.874566,18.7633131 15.7547743,17.6785714 16.9598524,17.5579958 C18.1649306,17.4374203 19.2387153,18.3268295 19.3580729,19.5442044 Z" id="Path"></path>
                    <path d="M22.9277344,3.56684473 C22.8548177,3.46336897 22.7369792,3.40176577 22.6111111,3.40176577 L5.31184894,3.40176577 L5.09440106,2.01317364 C4.91710067,0.851263566 3.92491322,-0.00460379184 2.76106772,-9.17181167e-15 L0.388888889,-9.17181167e-15 C0.174045111,-9.17181167e-15 -1.70530257e-13,0.175821082 -1.70530257e-13,0.392857143 C-1.70530257e-13,0.609893204 0.174045111,0.785714286 0.388888889,0.785714286 L2.76106772,0.785714286 C3.54166667,0.782645061 4.20724828,1.35680404 4.32617189,2.13616071 L6.20399306,14.1191805 C6.38129339,15.2810906 7.37348089,16.1371771 8.53732639,16.1323541 L20.1445312,16.1323541 C20.359158,16.1323541 20.5334201,15.956533 20.5334201,15.739497 C20.5334201,15.5226802 20.359158,15.3466398 20.1445312,15.3466398 L8.53732639,15.3466398 C7.75672744,15.349709 7.09114583,14.7755501 6.97222222,13.9961934 L6.65299478,11.9589047 L18.5407986,11.9589047 C19.547309,11.9584662 20.4431423,11.3143734 20.7730034,10.3539341 L22.9785156,3.92352916 C23.0197483,3.80339205 23.0008681,3.6703205 22.9277344,3.56684473 Z" id="Path"></path>
                </g>
            </g>
        </g>
    </g>
</svg>