<?xml version="1.0" encoding="UTF-8"?>
<svg width="184px" height="188px" viewBox="0 0 184 188" version="1.1" xmlns="http://www.w3.org/2000/svg" xmlns:xlink="http://www.w3.org/1999/xlink">
    <!-- Generator: Sketch 52.6 (67491) - http://www.bohemiancoding.com/sketch -->
    <title>Group 3</title>
    <desc>Created with Sketch.</desc>
    <g id="Page-1" stroke="none" stroke-width="1" fill="none" fill-rule="evenodd">
        <g id="Desktop-HD" transform="translate(-220.000000, -4155.000000)">
            <g id="Group-3" transform="translate(220.000000, 4155.000000)">
                <circle id="Oval" fill="#F7F7F7" fill-rule="nonzero" cx="67" cy="67" r="67"></circle>
                <g id="solar-energy" transform="translate(16.000000, 20.000000)">
                    <path d="M84,140 C53.1218786,140 28,114.878121 28,84 C28,53.1218786 53.1218786,28 84,28 C114.878121,28 140,53.1218786 140,84 C140,114.878121 114.878121,140 84,140 Z M84,33.5998721 C56.2108445,33.5998721 33.5998721,56.2108445 33.5998721,84 C33.5998721,111.789156 56.2108445,134.400128 84,134.400128 C111.789156,134.400128 134.400128,111.789156 134.400128,84 C134.400128,56.2108445 111.789156,33.5998721 84,33.5998721 Z" id="Shape" fill="#000000" fill-rule="nonzero"></path>
                    <path d="M84,168 C82.3441645,168 81,166.767567 81,165.249371 L81,148.749371 C81,147.231174 82.3441645,146 84,146 C85.6558355,146 87,147.231174 87,148.749371 L87,165.249371 C87,166.767567 85.6558355,168 84,168 Z" id="Path" fill="#000000"></path>
                    <path d="M84,22 C82.3441645,22 81,20.7688257 81,19.2506294 L81,2.75062935 C81,1.23243313 82.3441645,0 84,0 C85.6558355,0 87,1.23243313 87,2.75062935 L87,19.2506294 C87,20.7688257 85.6558355,22 84,22 Z" id="Path" fill="#000000"></path>
                    <path d="M19.2506294,87 L2.75062935,87 C1.23243313,87 0,85.6558355 0,84 C0,82.3441645 1.23243313,81 2.75062935,81 L19.2506294,81 C20.7688257,81 22,82.3441645 22,84 C22,85.6558355 20.7688257,87 19.2506294,87 Z" id="Path" fill="#000000"></path>
                    <path d="M165.249371,87 L148.749371,87 C147.231174,87 146,85.6558355 146,84 C146,82.3441645 147.231174,81 148.749371,81 L165.249371,81 C166.767567,81 168,82.3441645 168,84 C168,85.6558355 166.767567,87 165.249371,87 Z" id="Path" fill="#000000"></path>
                    <path d="M70.1115738,126 C69.684355,126 69.2533217,125.902586 68.8540757,125.697505 C67.7173683,125.115587 67.1210421,123.824857 67.4071264,122.570017 L74.9533871,89.5993648 L61.7795354,89.5993648 C60.6898732,89.5993648 59.7044726,88.958486 59.2518241,87.963842 C58.7991756,86.9679164 58.9657401,85.7963898 59.6790429,84.9683745 L95.7879336,42.9677402 C96.6245703,41.9936044 98.0104887,41.7218718 99.1459243,42.30379 C100.285175,42.8857078 100.882772,44.1777195 100.592874,45.4312786 L93.0466129,78.3993667 L106.220465,78.3993667 C107.310127,78.3993667 108.295527,79.0402455 108.748176,80.0348894 C109.200824,81.030815 109.03426,82.2023417 108.320957,83.030357 L72.2120664,125.030991 C71.6704141,125.664179 70.8986229,126 70.1115738,126 Z" id="Shape" fill="#F0A93F" fill-rule="nonzero"></path>
                    <path d="M141.275537,144 C140.578683,144 139.881829,143.73197 139.350774,143.202141 L127.798453,131.649397 C126.733849,130.584754 126.733849,128.863125 127.798453,127.798482 C128.863056,126.733839 130.584623,126.733839 131.649226,127.798482 L143.201547,139.351227 C144.266151,140.415869 144.266151,142.136252 143.201547,143.202141 C142.670492,143.73197 141.972391,144 141.275537,144 Z" id="Path" fill="#000000"></path>
                    <path d="M38.276398,41 C37.5796842,41 36.8817242,40.7332158 36.3507762,40.2021413 L24.7982919,28.6493968 C23.7339027,27.5847543 23.7339027,25.8643712 24.7982919,24.7984821 C25.8601882,23.7338393 27.5839002,23.7338393 28.648289,24.7984821 L40.2007734,36.3512266 C41.2664089,37.4158691 41.2664089,39.1374985 40.2007734,40.2021413 C39.6698254,40.7357093 38.9706191,41 38.276398,41 Z" id="Path" fill="#000000"></path>
                    <path d="M26.7239136,144 C26.0271999,144 25.3292399,143.73197 24.7982919,143.202141 C23.7339027,142.136252 23.7339027,140.415869 24.7982919,139.351227 L36.3507762,127.798482 C37.4164117,126.733839 39.1388771,126.733839 40.2007734,127.798482 C41.2664089,128.863125 41.2664089,130.584754 40.2007734,131.649397 L28.648289,143.202141 C28.1173407,143.73197 27.4206273,144 26.7239136,144 Z" id="Path" fill="#000000"></path>
                    <path d="M129.723216,41 C129.026362,41 128.329508,40.7332158 127.798453,40.2021413 C126.733849,39.1374985 126.733849,37.4158691 127.798453,36.3512266 L139.350774,24.7984821 C140.415377,23.7338393 142.135697,23.7338393 143.201547,24.7984821 C144.266151,25.8643712 144.266151,27.5847543 143.201547,28.6493968 L131.649226,40.2021413 C131.115678,40.7357093 130.42007,41 129.723216,41 Z" id="Path" fill="#000000"></path>
                </g>
            </g>
        </g>
    </g>
</svg>