<?xml version="1.0" encoding="UTF-8"?>
<svg width="15px" height="28px" viewBox="0 0 15 28" version="1.1" xmlns="http://www.w3.org/2000/svg" xmlns:xlink="http://www.w3.org/1999/xlink">
    <!-- Generator: Sketch 52.6 (67491) - http://www.bohemiancoding.com/sketch -->
    <title>facebook-logo (1) 2</title>
    <desc>Created with Sketch.</desc>
    <g id="Page-1" stroke="none" stroke-width="1" fill="none" fill-rule="evenodd">
        <g id="Desktop-HD" transform="translate(-158.000000, -5225.000000)" fill="#363636">
            <g id="facebook-logo-(1)-2" transform="translate(158.000000, 5225.000000)">
                <g id="facebook-logo-(1)">
                    <path d="M14.435144,0.00582586894 L10.8373261,0 C6.79530104,0 4.18316689,2.70465965 4.18316689,6.89083778 L4.18316689,10.0679754 L0.565721873,10.0679754 C0.253131675,10.0679754 0,10.3237311 0,10.6392019 L0,15.2425122 C0,15.557983 0.253420308,15.8134474 0.565721873,15.8134474 L4.18316689,15.8134474 L4.18316689,27.4290648 C4.18316689,27.7445356 4.43629856,28 4.74888876,28 L9.46862553,28 C9.78121572,28 10.0343474,27.7442444 10.0343474,27.4290648 L10.0343474,15.8134474 L14.2639843,15.8134474 C14.5765745,15.8134474 14.8297062,15.557983 14.8297062,15.2425122 L14.831438,10.6392019 C14.831438,10.4877293 14.7716908,10.3426651 14.6657623,10.2354691 C14.5598337,10.1282732 14.4155169,10.0679754 14.2654275,10.0679754 L10.0343474,10.0679754 L10.0343474,7.3746762 C10.0343474,6.08016812 10.3400104,5.4230101 12.0109104,5.4230101 L14.4345668,5.42213622 C14.7468683,5.42213622 15,5.16638057 15,4.85120107 L15,0.576761025 C15,0.261872809 14.747157,0.00640845583 14.435144,0.00582586894 Z" id="Path"></path>
                </g>
            </g>
        </g>
    </g>
</svg>