<?xml version="1.0" encoding="UTF-8"?>
<svg width="168px" height="174px" viewBox="0 0 168 174" version="1.1" xmlns="http://www.w3.org/2000/svg" xmlns:xlink="http://www.w3.org/1999/xlink">
    <!-- Generator: Sketch 52.6 (67491) - http://www.bohemiancoding.com/sketch -->
    <title>Group 4</title>
    <desc>Created with Sketch.</desc>
    <g id="Page-1" stroke="none" stroke-width="1" fill="none" fill-rule="evenodd">
        <g id="Desktop-HD" transform="translate(-632.000000, -4156.000000)" fill-rule="nonzero">
            <g id="Group-4" transform="translate(632.000000, 4156.000000)">
                <circle id="Oval-Copy" fill="#F7F7F7" cx="67" cy="67" r="67"></circle>
                <g id="Group-2" transform="translate(117.500000, 101.500000) rotate(33.000000) translate(-117.500000, -101.500000) translate(86.000000, 30.000000)">
                    <rect id="Rectangle" fill="#F0A93F" x="12" y="53" width="39" height="21"></rect>
                    <g id="water" transform="translate(31.500000, 71.500000) scale(-1, 1) translate(-31.500000, -71.500000) " fill="#000000">
                        <path d="M60.0064333,54.8166667 C61.3214969,54.8166667 62.3877331,53.7495199 62.3877331,52.4333333 L62.3877331,35.75 C62.3795938,27.8552083 55.98799,21.4581462 48.0999347,21.45 L48.0999347,19.0666667 C48.0999347,15.1181072 44.9012258,11.9166667 40.9560355,11.9166667 L38.5747357,11.9166667 L38.5747357,4.76666667 L43.3373352,4.76666667 C44.6523987,4.76666667 45.7186349,3.69951993 45.7186349,2.38333333 C45.7186349,1.06714674 44.6523987,0 43.3373352,0 L19.5243378,0 C18.2092743,0 17.1430381,1.06714674 17.1430381,2.38333333 C17.1430381,3.69951993 18.2092743,4.76666667 19.5243378,4.76666667 L24.2869373,4.76666667 L24.2869373,11.9166667 L21.9056376,11.9166667 C17.9604472,11.9166667 14.7617384,15.1181072 14.7617384,19.0666667 L14.7617384,21.45 C6.873683,21.4581462 0.482079244,27.8552083 0.473939961,35.75 L0.473939961,52.4333333 C0.473939961,53.7495199 1.54017614,54.8166667 2.8552397,54.8166667 C6.79345374,54.8166667 9.9991389,59.0922362 9.9991389,64.35 C9.9991389,69.6077638 6.79345374,73.8833333 2.8552397,73.8833333 C1.54017614,73.8833333 0.473939961,74.9504801 0.473939961,76.2666667 L0.473939961,131.083333 C0.482079244,137.661938 5.80744681,142.991854 12.3804386,143 L50.4812344,143 C57.0542262,142.991854 62.3795938,137.661938 62.3877331,131.083333 L62.3877331,76.2666667 C62.3877331,74.9504801 61.3214969,73.8833333 60.0064333,73.8833333 C56.0682193,73.8833333 52.8625341,69.6077638 52.8625341,64.35 C52.8625341,59.0922362 56.0682193,54.8166667 60.0064333,54.8166667 Z M29.0495368,4.76666667 L33.8121362,4.76666667 L33.8121362,11.9166667 L29.0495368,11.9166667 L29.0495368,4.76666667 Z M19.5243378,19.0666667 C19.5243378,17.7504801 20.590574,16.6833333 21.9056376,16.6833333 L40.9560355,16.6833333 C42.271099,16.6833333 43.3373352,17.7504801 43.3373352,19.0666667 L43.3373352,21.45 L19.5243378,21.45 L19.5243378,19.0666667 Z M5.23653943,35.75 C5.23653943,30.4852539 9.50148446,26.2166667 14.7617384,26.2166667 L48.0999347,26.2166667 C53.3601886,26.2166667 57.6251336,30.4852539 57.6251336,35.75 L57.6251336,50.05 L5.23653943,50.05 L5.23653943,35.75 Z M57.6251336,131.083333 C57.6251336,135.031893 54.4264247,138.233333 50.4812344,138.233333 L12.3804386,138.233333 C8.43524828,138.233333 5.23653943,135.031893 5.23653943,131.083333 L5.23653943,78.65 L57.6251336,78.65 L57.6251336,131.083333 Z M11.7234883,73.8833333 C15.7744885,68.1740399 15.7744885,60.5259601 11.7234883,54.8166667 L51.1381847,54.8166667 C47.0871845,60.5259601 47.0871845,68.1740399 51.1381847,73.8833333 L11.7234883,73.8833333 Z" id="Shape"></path>
                    </g>
                </g>
            </g>
        </g>
    </g>
</svg>