<?xml version="1.0" encoding="UTF-8"?>
<svg width="25px" height="25px" viewBox="0 0 25 25" version="1.1" xmlns="http://www.w3.org/2000/svg" xmlns:xlink="http://www.w3.org/1999/xlink">
    <!-- Generator: Sketch 52.6 (67491) - http://www.bohemiancoding.com/sketch -->
    <title>instagram-logo 2</title>
    <desc>Created with Sketch.</desc>
    <g id="Page-1" stroke="none" stroke-width="1" fill="none" fill-rule="evenodd">
        <g id="Desktop-HD" transform="translate(-211.000000, -5227.000000)" fill="#282828">
            <g id="instagram-logo-2" transform="translate(211.000000, 5227.000000)">
                <g id="instagram-logo">
                    <path d="M18.1007559,0 L6.89894831,0 C3.09487052,0 0,3.0950184 0,6.89909619 L0,18.1009038 C0,21.9051295 3.09487052,25 6.89894831,25 L18.1007559,25 C21.9051295,25 25,21.9049816 25,18.1009038 L25,6.89909619 C25.0001479,3.0950184 21.9051295,0 18.1007559,0 Z M22.7820267,18.1009038 C22.7820267,20.6820575 20.6820575,22.7818788 18.1009038,22.7818788 L6.89894831,22.7818788 C4.31794253,22.7820267 2.21812116,20.6820575 2.21812116,18.1009038 L2.21812116,6.89909619 C2.21812116,4.3180904 4.31794253,2.21812116 6.89894831,2.21812116 L18.1007559,2.21812116 C20.6819096,2.21812116 22.7818788,4.3180904 22.7818788,6.89909619 L22.7818788,18.1009038 L22.7820267,18.1009038 Z" id="Shape" fill-rule="nonzero"></path>
                    <path d="M12.5,6.06060606 C8.9492647,6.06060606 6.06060606,8.94933101 6.06060606,12.5001478 C6.06060606,16.0508168 8.9492647,18.9393939 12.5,18.9393939 C16.0507353,18.9393939 18.9393939,16.0508168 18.9393939,12.5001478 C18.9393939,8.94933101 16.0507353,6.06060606 12.5,6.06060606 Z M12.5,16.7219258 C10.1720149,16.7219258 8.27787551,14.8280385 8.27787551,12.5 C8.27787551,10.1718136 10.1718671,8.27777859 12.5,8.27777859 C14.8281329,8.27777859 16.7221245,10.1718136 16.7221245,12.5 C16.7221245,14.8280385 14.8279851,16.7219258 12.5,16.7219258 Z" id="Shape" fill-rule="nonzero"></path>
                    <path d="M19.1666667,4.24242424 C18.7486915,4.24242424 18.3380923,4.41163912 18.0429063,4.70812672 C17.7462741,5.00316804 17.5757576,5.41391185 17.5757576,5.83333333 C17.5757576,6.25145317 17.7464187,6.66205234 18.0429063,6.95853994 C18.3379477,7.25358127 18.7486915,7.42424242 19.1666667,7.42424242 C19.5860882,7.42424242 19.9953857,7.25358127 20.2918733,6.95853994 C20.5883609,6.66205234 20.7575758,6.25130854 20.7575758,5.83333333 C20.7575758,5.41391185 20.5883609,5.00316804 20.2918733,4.70812672 C19.996832,4.41163912 19.5860882,4.24242424 19.1666667,4.24242424 Z" id="Path"></path>
                </g>
            </g>
        </g>
    </g>
</svg>