<?xml version="1.0" encoding="UTF-8"?>
<svg width="117px" height="68px" viewBox="0 0 117 68" version="1.1" xmlns="http://www.w3.org/2000/svg" xmlns:xlink="http://www.w3.org/1999/xlink">
    <!-- Generator: Sketch 52.6 (67491) - http://www.bohemiancoding.com/sketch -->
    <title>SQUEEZY SPORTS NUTRITION-UPGRADE YOURSELF 2</title>
    <desc>Created with Sketch.</desc>
    <g id="Page-1" stroke="none" stroke-width="1" fill="none" fill-rule="evenodd">
        <g id="Desktop-HD" transform="translate(-59.000000, -54.000000)">
            <g id="SQUEEZY-SPORTS-NUTRITION-UPGRADE-YOURSELF-2" transform="translate(59.000000, 54.000000)">
                <g id="SQUEEZY-SPORTS-NUTRITION-UPGRADE-YOURSELF">
                    <path d="M2.74488604,12.0279493 C2.74488604,14.4915587 4.52398173,15.4548484 6.71992168,15.4548484 C9.13587574,15.4548484 10.0366266,14.24542 10.0366266,13.0359915 C10.0366266,11.803552 9.37782902,11.3107984 8.74081505,11.0646596 C7.64261168,10.6393521 6.21547632,10.3479848 4.06263673,9.74303251 C1.38341261,9.00414012 0.593291224,7.34639315 0.593291224,5.68880487 C0.593291224,2.48566828 3.49190707,0.985507246 6.32486099,0.985507246 C9.59722074,0.985507246 12.3421068,2.75481808 12.3421068,6.0917361 L9.59722074,6.0917361 C9.46527451,4.03169269 8.10380108,3.26994796 6.21547632,3.26994796 C4.94144838,3.26994796 3.33817726,3.74032533 3.33817726,5.35284371 C3.33817726,6.47356064 4.08504269,7.10025438 5.20471844,7.41399799 C5.44651613,7.48033326 8.91648402,8.39902915 9.72916696,8.64516792 C11.7931607,9.27313123 12.7815126,11.0646596 12.7815126,12.7222479 C12.7815126,16.3059395 9.66288266,17.7391304 6.54425271,17.7391304 C2.96427776,17.7391304 0.0656619188,15.9929893 0,12.0279493 L2.74488604,12.0279493" id="Fill-1" fill="#636463"></path>
                    <path d="M22.7970017,13.598593 L24.1769735,12.0610164 L26.1780875,13.7552243 C27.2124553,12.5519104 27.6038466,10.9248076 27.6038466,9.31996803 C27.6038466,6.26692012 26.1316485,3.25839846 22.613038,3.25839846 C19.0939387,3.25839846 17.6222295,6.26692012 17.6222295,9.31996803 C17.6222295,12.3736475 19.0939387,15.3816955 22.613038,15.3816955 C23.2107162,15.3816955 23.8778085,15.2700641 24.4531634,15.0030645 L22.7970017,13.598593 Z M30.2714011,17.2091663 L28.8686171,18.7246377 L26.4766007,16.6966408 C25.2577804,17.3651661 23.9007836,17.6544288 22.613038,17.6544288 C17.6916436,17.6544288 14.7478992,13.8662241 14.7478992,9.31996803 C14.7478992,4.77434349 17.6916436,0.985507246 22.613038,0.985507246 C27.5350842,0.985507246 30.4789916,4.77434349 30.4789916,9.31996803 C30.4789916,11.5039646 29.7882724,13.9107504 28.1557375,15.4266954 L30.2714011,17.2091663 Z" id="Fill-2" fill="#636463"></path>
                    <path d="M31.4621849,0.985507246 L34.1887839,0.985507246 L34.1887839,10.5198942 C34.1887839,12.7203996 34.3198288,15.2646782 37.8529412,15.2646782 C41.3866717,15.2646782 41.5177166,12.7203996 41.5177166,10.5198942 L41.5177166,0.985507246 L44.2436975,0.985507246 L44.2436975,11.459465 C44.2436975,15.6542445 41.6915674,17.7391304 37.8529412,17.7391304 C34.014315,17.7391304 31.4621849,15.6542445 31.4621849,11.459465 L31.4621849,0.985507246" id="Fill-3" fill="#636463"></path>
                    <polyline id="Fill-4" fill="#636463" points="47.1932773 1.97101449 58.8329187 1.97101449 58.8329187 4.35586047 50.0236482 4.35586047 50.0236482 8.48560885 58.1762265 8.48560885 58.1762265 10.7385545 50.0236482 10.7385545 50.0236482 15.3536586 58.9915966 15.3536586 58.9915966 17.7391304 47.1932773 17.7391304 47.1932773 1.97101449"></polyline>
                    <polyline id="Fill-5" fill="#636463" points="61.9411765 1.97101449 73.5809848 1.97101449 73.5809848 4.35586047 64.7719132 4.35586047 64.7719132 8.48560885 72.9235172 8.48560885 72.9235172 10.7385545 64.7719132 10.7385545 64.7719132 15.3536586 73.7394958 15.3536586 73.7394958 17.7391304 61.9411765 17.7391304 61.9411765 1.97101449"></polyline>
                    <polyline id="Fill-6" fill="#636463" points="75.4216273 1.97101449 87.2859286 1.97101449 87.2859286 4.06858995 78.1960171 15.3536586 87.5042017 15.3536586 87.5042017 17.7391304 74.7226891 17.7391304 74.7226891 15.4863413 83.8118266 4.35586047 75.4216273 4.35586047 75.4216273 1.97101449"></polyline>
                    <polyline id="Fill-7" fill="#636463" points="94.4750233 11.5551475 88.487395 1.97101449 91.7273953 1.97101449 95.9500824 9.03761886 100.107225 1.97101449 103.235294 1.97101449 97.2691971 11.5551475 97.2691971 17.7391304 94.4750233 17.7391304 94.4750233 11.5551475"></polyline>
                    <path d="M105.782077,1.8388192 L106.15389,1.8388192 C106.467326,1.8388192 106.755466,1.82343538 106.755466,1.45935159 C106.755466,1.15363583 106.49352,1.10642861 106.253279,1.10642861 L105.782077,1.10642861 L105.782077,1.8388192 Z M105.426579,0.816699964 L106.310608,0.816699964 C106.854855,0.816699964 107.110514,1.03222429 107.110514,1.47594198 C107.110514,1.89175764 106.849018,2.06565516 106.509387,2.10215403 L107.163053,3.11959779 L106.780613,3.11959779 L106.159128,2.12930196 L105.782077,2.12930196 L105.782077,3.11959779 L105.426579,3.11959779 L105.426579,0.816699964 Z M106.190113,3.65154623 C107.095246,3.65154623 107.796362,2.92518851 107.796362,1.96023074 C107.796362,1.01699129 107.095246,0.289276183 106.190113,0.289276183 C105.274501,0.289276183 104.573985,1.01699129 104.573985,1.96023074 C104.573985,2.92518851 105.274501,3.65154623 106.190113,3.65154623 Z M106.190113,0 C107.257802,0 108.151261,0.848372539 108.151261,1.96023074 C108.151261,3.09305316 107.257802,3.94202899 106.190113,3.94202899 C105.118382,3.94202899 104.218487,3.09305316 104.218487,1.96023074 C104.218487,0.848372539 105.118382,0 106.190113,0 Z" id="Fill-8" fill="#636463"></path>
                    <path d="M2.74488604,30.7519522 C2.74488604,33.2166725 4.52398173,34.1794861 6.71992168,34.1794861 C9.13587574,34.1794861 10.0366266,32.9700576 10.0366266,31.7604705 C10.0366266,30.5281897 9.37782902,30.0352774 8.74081505,29.7892973 C7.64261168,29.363355 6.21547632,29.0719877 4.06263673,28.4681463 C1.38341261,27.7286191 0.593291224,26.0710308 0.593291224,24.4139186 C0.593291224,21.210306 3.49190707,19.7101449 6.32486099,19.7101449 C9.59722074,19.7101449 12.3421068,21.4792971 12.3421068,24.8170086 L9.59722074,24.8170086 C9.46527451,22.7563304 8.10380108,21.9944269 6.21547632,21.9944269 C4.94144838,21.9944269 3.33817726,22.464963 3.33817726,24.0773227 C3.33817726,25.1975635 4.08504269,25.8248921 5.20471844,26.1386357 C5.44651613,26.2056057 8.91648402,27.1236668 9.72916696,27.3696469 C11.7931607,27.9976102 12.7815126,29.7892973 12.7815126,31.4462508 C12.7815126,35.0305771 9.66288266,36.4637681 6.54425271,36.4637681 C2.96427776,36.4637681 0.0656619188,34.7174683 0,30.7519522 L2.74488604,30.7519522" id="Fill-9" fill="#F0A93F"></path>
                    <path d="M18.5940227,28.1597444 L22.7862576,28.1597444 C24.0686608,28.1597444 25.6490256,27.5418441 25.6490256,25.5535788 C25.6490256,23.4780032 24.3430906,22.948039 22.8318606,22.948039 L18.5940227,22.948039 L18.5940227,28.1597444 Z M15.7310924,20.6956522 L22.9465986,20.6956522 C27.6187203,20.6956522 28.512605,23.6111592 28.512605,25.5762669 C28.512605,27.5199383 27.6187203,30.4352888 22.9465986,30.4127571 L18.5940227,30.4127571 L18.5940227,36.4637681 L15.7310924,36.4637681 L15.7310924,20.6956522 Z" id="Fill-10" fill="#F0A93F"></path>
                    <path d="M32.3707804,28.0863217 C32.3707804,31.156153 33.8424897,34.1794861 37.361589,34.1794861 C40.8801994,34.1794861 42.3517457,31.156153 42.3517457,28.0863217 C42.3517457,25.01776 40.8801994,21.9944269 37.361589,21.9944269 C33.8424897,21.9944269 32.3707804,25.01776 32.3707804,28.0863217 Z M45.2268908,28.0863217 C45.2268908,32.656314 42.2829834,36.4637681 37.361589,36.4637681 C32.4395427,36.4637681 29.4957983,32.656314 29.4957983,28.0863217 C29.4957983,23.517599 32.4395427,19.7101449 37.361589,19.7101449 C42.2829834,19.7101449 45.2268908,23.517599 45.2268908,28.0863217 Z" id="Fill-11" fill="#F0A93F"></path>
                    <path d="M50.041643,27.8724654 L54.713247,27.8724654 C56.5140418,27.8724654 57.4934753,27.0118799 57.4934753,25.3556441 C57.4934753,23.3459424 56.1494588,22.948039 54.6678759,22.948039 L50.041643,22.948039 L50.041643,27.8724654 Z M47.1932773,20.6956522 L54.9643216,20.6956522 C58.5195716,20.6956522 60.3424869,22.2853882 60.3424869,24.9582101 C60.3424869,27.9837156 58.1771089,28.7563649 57.6530006,28.9330196 L57.6530006,28.9776136 C58.6332414,29.1096743 60.0686459,29.8161367 60.0686459,32.3123039 C60.0686459,34.1453509 60.3424869,35.8238055 60.9579832,36.4637681 L57.9034295,36.4637681 C57.4707091,35.7792115 57.4707091,34.9186261 57.4707091,34.1453509 C57.4707091,31.2519062 56.8558586,29.9715115 54.2351555,29.9715115 L50.041643,29.9715115 L50.041643,36.4637681 L47.1932773,36.4637681 L47.1932773,20.6956522 Z" id="Fill-12" fill="#F0A93F"></path>
                    <polyline id="Fill-13" fill="#F0A93F" points="60.9579832 20.6956522 73.7394958 20.6956522 73.7394958 23.0805691 68.7199218 23.0805691 68.7199218 36.4637681 65.9556232 36.4637681 65.9556232 23.0805691 60.9579832 23.0805691 60.9579832 20.6956522"></polyline>
                    <path d="M78.4513908,30.7519522 C78.4513908,33.2166725 80.2303309,34.1794861 82.4264264,34.1794861 C84.8417581,34.1794861 85.7425089,32.9700576 85.7425089,31.7604705 C85.7425089,30.5281897 85.0837114,30.0352774 84.4466974,29.7892973 C83.3483384,29.363355 81.9207363,29.0719877 79.7689859,28.4681463 C77.0899173,27.7286191 76.2985512,26.0710308 76.2985512,24.4139186 C76.2985512,21.210306 79.1977894,19.7101449 82.0312101,19.7101449 C85.3031031,19.7101449 88.0484559,21.4792971 88.0484559,24.8170086 L85.3031031,24.8170086 C85.1711569,22.7563304 83.8096834,21.9944269 81.9207363,21.9944269 C80.6473307,21.9944269 79.0445264,22.464963 79.0445264,24.0773227 C79.0445264,25.1975635 79.7903027,25.8248921 80.9110676,26.1386357 C81.1523985,26.2056057 84.6223664,27.1236668 85.4348937,27.3696469 C87.4996654,27.9976102 88.487395,29.7892973 88.487395,31.4462508 C88.487395,35.0305771 85.3693874,36.4637681 82.2507574,36.4637681 C78.6707825,36.4637681 75.7721667,34.7174683 75.7058824,30.7519522 L78.4513908,30.7519522" id="Fill-14" fill="#F0A93F"></path>
                    <polyline id="Fill-15" fill="#F0A93F" points="0 39.4202899 2.91424493 39.4202899 10.1104733 51.0370569 10.1544224 51.0370569 10.1544224 39.4202899 12.7815126 39.4202899 12.7815126 55.1884058 9.86742407 55.1884058 2.69293561 43.5937013 2.62709022 43.5937013 2.62709022 55.1884058 0 55.1884058 0 39.4202899"></polyline>
                    <path d="M15.7310924,38.4347826 L18.4576585,38.4347826 L18.4576585,47.9692395 C18.4576585,50.1697236 18.5887018,52.7139776 22.1217715,52.7139776 C25.6548411,52.7139776 25.7858844,50.1697236 25.7858844,47.9692395 L25.7858844,38.4347826 L28.512605,38.4347826 L28.512605,48.9086388 C28.512605,53.1027281 25.9603513,55.1884058 22.1217715,55.1884058 C18.2825736,55.1884058 15.7310924,53.1027281 15.7310924,48.9086388 L15.7310924,38.4347826" id="Fill-16" fill="#F0A93F"></path>
                    <polyline id="Fill-17" fill="#F0A93F" points="31.4621849 39.4202899 44.2436975 39.4202899 44.2436975 41.8052305 39.2238774 41.8052305 39.2238774 55.1884058 36.4592866 55.1884058 36.4592866 41.8052305 31.4621849 41.8052305 31.4621849 39.4202899"></polyline>
                    <path d="M50.0414816,46.5971743 L54.7138928,46.5971743 C56.5138804,46.5971743 57.4941212,45.7359544 57.4941212,44.0795457 C57.4941212,42.0704499 56.1494588,41.6720731 54.6678759,41.6720731 L50.0414816,41.6720731 L50.0414816,46.5971743 Z M47.1932773,39.4202899 L54.9643216,39.4202899 C58.5195716,39.4202899 60.3423254,41.0100417 60.3423254,43.6822642 C60.3423254,46.7077997 58.1771089,47.4810825 57.6530006,47.6575825 L57.6530006,47.7023334 C58.63308,47.834239 60.0686459,48.5408649 60.0686459,51.0370569 C60.0686459,52.8694962 60.3423254,54.5485933 60.9579832,55.1884058 L57.9040753,55.1884058 C57.4707091,54.5038424 57.4707091,53.6432484 57.4707091,52.8694962 C57.4707091,49.9766486 56.8565045,48.6960848 54.2351555,48.6960848 L50.0414816,48.6960848 L50.0414816,55.1884058 L47.1932773,55.1884058 L47.1932773,39.4202899 Z" id="Fill-18" fill="#F0A93F"></path>
                    <polygon id="Fill-19" fill="#F0A93F" points="61.9411765 55.1884058 64.8907563 55.1884058 64.8907563 39.4202899 61.9411765 39.4202899"></polygon>
                    <polyline id="Fill-20" fill="#F0A93F" points="66.8571429 39.4202899 79.6386555 39.4202899 79.6386555 41.8052305 74.6190815 41.8052305 74.6190815 55.1884058 71.8547829 55.1884058 71.8547829 41.8052305 66.8571429 41.8052305 66.8571429 39.4202899"></polyline>
                    <polygon id="Fill-21" fill="#F0A93F" points="81.605042 55.1884058 84.5546218 55.1884058 84.5546218 39.4202899 81.605042 39.4202899"></polygon>
                    <path d="M88.4127972,46.8109594 C88.4127972,49.8807907 89.8851582,52.9039651 93.402954,52.9039651 C96.9222162,52.9039651 98.3944143,49.8807907 98.3944143,46.8109594 C98.3944143,43.7423977 96.9222162,40.7190646 93.402954,40.7190646 C89.8851582,40.7190646 88.4127972,43.7423977 88.4127972,46.8109594 Z M101.268908,46.8109594 C101.268908,51.3809517 98.3250002,55.1884058 93.402954,55.1884058 C88.4815595,55.1884058 85.5378151,51.3809517 85.5378151,46.8109594 C85.5378151,42.2422367 88.4815595,38.4347826 93.402954,38.4347826 C98.3250002,38.4347826 101.268908,42.2422367 101.268908,46.8109594 Z" id="Fill-22" fill="#F0A93F"></path>
                    <polyline id="Fill-23" fill="#F0A93F" points="103.235294 39.4202899 106.149503 39.4202899 113.345175 51.0370569 113.389749 51.0370569 113.389749 39.4202899 116.016807 39.4202899 116.016807 55.1884058 113.102597 55.1884058 105.928353 43.5937013 105.862352 43.5937013 105.862352 55.1884058 103.235294 55.1884058 103.235294 39.4202899"></polyline>
                    <path d="M1.10063801,59.3590318 L1.10063801,64.5481847 C1.10063801,65.1577798 1.20961098,65.6644982 1.42756019,66.068355 C1.75085152,66.6779502 2.29571637,66.9827432 3.0621711,66.9827432 C3.98119027,66.9827432 4.60596864,66.6531857 4.93652494,65.994061 C5.11451679,65.6359238 5.20351139,65.1539699 5.20351139,64.5481847 L5.20351139,59.3590318 L6.3041494,59.3590318 L6.3041494,64.0738458 C6.3041494,65.1063476 6.17156562,65.9007144 5.90639408,66.45697 C5.41964084,67.4704219 4.50063545,67.9771403 3.14935035,67.9771403 C1.79806524,67.9771403 0.880876071,67.4704219 0.397755321,66.45697 C0.132583781,65.9007144 0,65.1063476 0,64.0738458 L0,59.3590318 L1.10063801,59.3590318 Z M8.08587529,59.3590318 L11.687468,59.3590318 C12.3994354,59.3590318 12.9733597,59.5695295 13.4092581,59.9905312 C13.8451566,60.4115328 14.0631025,61.0030217 14.0631025,61.7650157 C14.0631025,62.4203305 13.8687674,62.9908649 13.4800913,63.476636 C13.0914152,63.9624072 12.4938801,64.2052891 11.687468,64.2052891 L9.17016719,64.2052891 L9.17016719,67.7542582 L8.08587529,67.7542582 L8.08587529,59.3590318 Z M12.9679132,61.7707306 C12.9679132,61.1535155 12.7499673,60.7344251 12.3140688,60.5134469 C12.0743247,60.3953378 11.7455896,60.3362842 11.3278536,60.3362842 L9.17016719,60.3362842 L9.17016719,63.2451815 L11.3278536,63.2451815 C11.8146068,63.2451815 12.2096338,63.136599 12.5129465,62.9194307 C12.8162591,62.7022625 12.9679132,62.3193663 12.9679132,61.7707306 Z M18.8852047,59.1418646 C19.6371295,59.1418646 20.2873348,59.2942611 20.8358404,59.5990587 C21.631355,60.0372052 22.1181009,60.8049026 22.2960928,61.9021739 L21.2226983,61.9021739 C21.0919287,61.2887688 20.8213125,60.8420565 20.4108415,60.5620238 C20.0003705,60.281991 19.4827489,60.1419767 18.8579612,60.1419767 C18.1169338,60.1419767 17.4930636,60.433435 16.9863317,61.0163604 C16.4795998,61.5992857 16.2262376,62.4679458 16.2262376,63.6223667 C16.2262376,64.6205787 16.4351025,65.4330426 16.8528384,66.0597826 C17.2705744,66.6865226 17.9516555,66.9998879 18.8961021,66.9998879 C19.618967,66.9998879 20.2174102,66.7798655 20.6914497,66.339814 C21.1654893,65.8997625 21.4079541,65.1882613 21.4188516,64.2052891 L18.9124482,64.2052891 L18.9124482,63.2623263 L22.4268616,63.2623263 L22.4268616,67.7542582 L21.7294277,67.7542582 L21.4678899,66.6741372 C21.1010087,67.0970438 20.775906,67.3904071 20.4925721,67.5542358 C20.0167163,67.8361735 19.4119163,67.9771403 18.678154,67.9771403 C17.7300749,67.9771403 16.9145938,67.6552027 16.2316863,67.0113178 C15.4870265,66.2036042 15.1147022,65.0949196 15.1147022,63.6852308 C15.1147022,62.279352 15.4779454,61.1611427 16.2044428,60.3305693 C16.8946153,59.5380955 17.7881936,59.1418646 18.8852047,59.1418646 Z M27.8265263,63.2051771 C28.3350745,63.2051771 28.7373664,63.0984995 29.0334141,62.8851412 C29.3294617,62.6717829 29.4774834,62.2869817 29.4774834,61.7307261 C29.4774834,61.1325609 29.2704347,60.7249002 28.8563312,60.507732 C28.6347495,60.3934329 28.3387063,60.3362842 27.9681926,60.3362842 L25.3201229,60.3362842 L25.3201229,63.2051771 L27.8265263,63.2051771 Z M24.235831,59.3590318 L27.9409491,59.3590318 C28.5512069,59.3590318 29.0542988,59.4523747 29.4502398,59.6390632 C30.2021646,59.9972004 30.5781214,60.6582202 30.5781214,61.6221425 C30.5781214,62.1250585 30.4791376,62.5365291 30.281167,62.8565666 C30.0831965,63.176604 29.8062235,63.4337731 29.4502398,63.6280816 C29.7626337,63.7614305 29.9978337,63.9366865 30.1558469,64.1538548 C30.3138601,64.371023 30.4019465,64.72344 30.420109,65.2111161 L30.4582499,66.3369565 C30.4691474,66.656994 30.4945744,66.8951135 30.5345317,67.0513223 C30.5999165,67.3180202 30.7161543,67.4894662 30.8832487,67.5656656 L30.8832487,67.7542582 L29.5537652,67.7542582 C29.5174403,67.6818688 29.4883809,67.5885259 29.4665859,67.4742268 C29.444791,67.3599277 29.4266289,67.1389528 29.4120989,66.8112954 L29.3467145,65.4111385 C29.3212871,64.8625029 29.1269519,64.4948463 28.7637033,64.3081578 C28.5566515,64.2052886 28.2315488,64.1538548 27.7883854,64.1538548 L25.3201229,64.1538548 L25.3201229,67.7542582 L24.235831,67.7542582 L24.235831,59.3590318 Z M36.272016,64.3138727 L35.0569552,60.6048857 L33.7656126,64.3138727 L36.272016,64.3138727 Z M34.4902901,59.3590318 L35.7162483,59.3590318 L38.620407,67.7542582 L37.4325898,67.7542582 L36.620733,65.2396907 L33.4550366,65.2396907 L32.5886928,67.7542582 L31.4771574,67.7542582 L34.4902901,59.3590318 Z M42.6796908,66.7827208 C43.0465719,66.7827208 43.3480638,66.7427167 43.5841755,66.6627073 C44.005544,66.5141185 44.350625,66.228375 44.6194291,65.8054684 C44.8337458,65.4663811 44.9881241,65.0320511 45.0825688,64.5024653 C45.1370561,64.1862378 45.1642994,63.8928745 45.1642994,63.6223667 C45.1642994,62.5822449 44.9672399,61.7745434 44.5731151,61.199238 C44.1789903,60.6239326 43.5442227,60.3362842 42.6687934,60.3362842 L40.7454012,60.3362842 L40.7454012,66.7827208 L42.6796908,66.7827208 Z M39.6556606,59.3590318 L42.8976389,59.3590318 C43.9982824,59.3590318 44.851904,59.7685974 45.4585293,60.5877409 C45.9997699,61.3268751 46.2703861,62.2736383 46.2703861,63.4280592 C46.2703861,64.3195921 46.110559,65.1253886 45.7909002,65.8454729 C45.2278647,67.1180028 44.2598215,67.7542582 42.8867415,67.7542582 L39.6556606,67.7542582 L39.6556606,59.3590318 Z M47.7687794,59.3590318 L53.6043403,59.3590318 L53.6043403,60.3877185 L48.8258278,60.3877185 L48.8258278,62.9365755 L53.2447259,62.9365755 L53.2447259,63.908113 L48.8258278,63.908113 L48.8258278,66.7541461 L53.6860709,66.7541461 L53.6860709,67.7542582 L47.7687794,67.7542582 L47.7687794,59.3590318 Z M57.3911889,59.3590318 L58.655288,59.3590318 L60.9546407,63.3937696 L63.2539934,59.3590318 L64.5235412,59.3590318 L61.499511,64.371022 L61.499511,67.7542582 L60.4152191,67.7542582 L60.4152191,64.371022 L57.3911889,59.3590318 Z M68.9097471,59.1304348 C70.3227845,59.1304348 71.368925,59.6066739 72.0482001,60.5591663 C72.5785431,61.3021104 72.8437107,62.2526836 72.8437107,63.4109144 C72.8437107,64.6643944 72.5404026,65.7064055 71.9337773,66.5369789 C71.2218099,67.5123312 70.206545,68 68.8879523,68 C67.6565393,68 66.688496,67.5732898 65.9837936,66.7198566 C65.3553734,65.8969031 65.041168,64.856797 65.041168,63.5995069 C65.041168,62.464136 65.309968,61.4926083 65.847576,60.6848947 C66.5377485,59.6485829 67.558462,59.1304348 68.9097471,59.1304348 Z M69.0187212,66.9827432 C69.9740652,66.9827432 70.6651355,66.6236589 71.0919527,65.9054796 C71.5187699,65.1873003 71.7321753,64.3615018 71.7321753,63.4280592 C71.7321753,62.441277 71.486078,61.6469102 70.993876,61.044935 C70.5016741,60.4429598 69.828766,60.1419767 68.9751316,60.1419767 C68.1469246,60.1419767 67.4712921,60.4401024 66.948214,61.0363626 C66.4251359,61.6326229 66.1636008,62.5117602 66.1636008,63.673801 C66.1636008,64.6034336 66.3879035,65.3873231 66.8365156,66.0254931 C67.2851277,66.663663 68.0125223,66.9827432 69.0187212,66.9827432 Z M75.3119732,59.3590318 L75.3119732,64.5481847 C75.3119732,65.1577798 75.4209461,65.6644982 75.6388954,66.068355 C75.9621867,66.6779502 76.5070515,66.9827432 77.2735063,66.9827432 C78.1925254,66.9827432 78.8173038,66.6531857 79.1478601,65.994061 C79.325852,65.6359238 79.4148466,65.1539699 79.4148466,64.5481847 L79.4148466,59.3590318 L80.5154846,59.3590318 L80.5154846,64.0738458 C80.5154846,65.1063476 80.3829008,65.9007144 80.1177292,66.45697 C79.630976,67.4704219 78.7119706,67.9771403 77.3606855,67.9771403 C76.0094004,67.9771403 75.0922112,67.4704219 74.6090905,66.45697 C74.3439189,65.9007144 74.2113352,65.1063476 74.2113352,64.0738458 L74.2113352,59.3590318 L75.3119732,59.3590318 Z M85.9151493,63.2051771 C86.4236974,63.2051771 86.8259893,63.0984995 87.122037,62.8851412 C87.4180847,62.6717829 87.5661063,62.2869817 87.5661063,61.7307261 C87.5661063,61.1325609 87.3590576,60.7249002 86.9449541,60.507732 C86.7233724,60.3934329 86.4273292,60.3362842 86.0568155,60.3362842 L83.4087459,60.3362842 L83.4087459,63.2051771 L85.9151493,63.2051771 Z M82.324454,59.3590318 L86.029572,59.3590318 C86.6398298,59.3590318 87.1429217,59.4523747 87.5388628,59.6390632 C88.2907875,59.9972004 88.6667443,60.6582202 88.6667443,61.6221425 C88.6667443,62.1250585 88.5677605,62.5365291 88.36979,62.8565666 C88.1718194,63.176604 87.8948465,63.4337731 87.5388628,63.6280816 C87.8512566,63.7614305 88.0864566,63.9366865 88.2444698,64.1538548 C88.402483,64.371023 88.4905695,64.72344 88.5087319,65.2111161 L88.5468728,66.3369565 C88.5577703,66.656994 88.5831973,66.8951135 88.6231547,67.0513223 C88.6885394,67.3180202 88.8047773,67.4894662 88.9718717,67.5656656 L88.9718717,67.7542582 L87.6423881,67.7542582 C87.6060632,67.6818688 87.5770038,67.5885259 87.5552089,67.4742268 C87.5334139,67.3599277 87.5152518,67.1389528 87.5007218,66.8112954 L87.4353374,65.4111385 C87.40991,64.8625029 87.2155749,64.4948463 86.8523262,64.3081578 C86.6452744,64.2052886 86.3201717,64.1538548 85.8770083,64.1538548 L83.4087459,64.1538548 L83.4087459,67.7542582 L82.324454,67.7542582 L82.324454,59.3590318 Z M90.9606483,65.0453832 C90.9860757,65.5216295 91.0932324,65.9083356 91.2821217,66.2055132 C91.6417379,66.7617688 92.2755974,67.0398924 93.1837191,67.0398924 C93.5905576,67.0398924 93.9610657,66.9789338 94.2952545,66.8570148 C94.9418372,66.6207967 95.2651236,66.1978964 95.2651236,65.5883012 C95.2651236,65.1311048 95.1289074,64.8053573 94.8564709,64.6110489 C94.5804019,64.4205504 94.1481425,64.2548192 93.5596796,64.1138503 L92.4753877,63.8566786 C91.7670528,63.68904 91.2657771,63.5042592 90.9715457,63.3023308 C90.4629975,62.9518136 90.2087272,62.4279506 90.2087272,61.7307261 C90.2087272,60.9763521 90.4575489,60.3572413 90.9551996,59.8733752 C91.4528503,59.389509 92.1575421,59.1475796 93.0692963,59.1475796 C93.9084008,59.1475796 94.6212656,59.3599822 95.2079123,59.7847938 C95.7945589,60.2096054 96.0878778,60.8887224 96.0878778,61.8221649 L95.0689703,61.8221649 C95.014483,61.3725885 94.8982452,61.0277914 94.7202533,60.7877633 C94.389697,60.3496168 93.8284862,60.1305468 93.0366041,60.1305468 C92.3972864,60.1305468 91.9377837,60.2715136 91.6580822,60.5534514 C91.3783808,60.8353891 91.2385321,61.1630416 91.2385321,61.5364186 C91.2385321,61.9478954 91.4019916,62.2488785 91.7289154,62.439377 C91.9432321,62.561296 92.4281618,62.7136925 93.1837191,62.896571 L94.3061519,63.1651726 C94.8473925,63.2947115 95.2651222,63.4718725 95.5593536,63.6966607 C96.0679018,64.0890876 96.322172,64.6586695 96.322172,65.4054236 C96.322172,66.3350562 95.9997937,66.9998859 95.3550272,67.3999328 C94.7102608,67.7999796 93.9610717,68 93.1074372,68 C92.1121359,68 91.3329791,67.7333061 90.7699437,67.1999104 C90.2069082,66.6703246 89.9308433,65.952156 89.9417408,65.0453832 L90.9606483,65.0453832 Z M97.7987705,59.3590318 L103.634331,59.3590318 L103.634331,60.3877185 L98.8558189,60.3877185 L98.8558189,62.9365755 L103.274717,62.9365755 L103.274717,63.908113 L98.8558189,63.908113 L98.8558189,66.7541461 L103.716062,66.7541461 L103.716062,67.7542582 L97.7987705,67.7542582 L97.7987705,59.3590318 Z M105.138174,59.3590318 L106.222465,59.3590318 L106.222465,66.7541461 L110.2763,66.7541461 L110.2763,67.7542582 L105.138174,67.7542582 L105.138174,59.3590318 Z M111.447772,59.3590318 L117,59.3590318 L117,60.3877185 L112.532064,60.3877185 L112.532064,62.9365755 L116.460578,62.9365755 L116.460578,63.9366876 L112.532064,63.9366876 L112.532064,67.7542582 L111.447772,67.7542582 L111.447772,59.3590318 Z" id="UPGRADE-YOURSELF" fill="#636463"></path>
                </g>
            </g>
        </g>
    </g>
</svg>