<?xml version="1.0" encoding="UTF-8"?>
<svg width="183px" height="161px" viewBox="0 0 183 161" version="1.1" xmlns="http://www.w3.org/2000/svg" xmlns:xlink="http://www.w3.org/1999/xlink">
    <!-- Generator: Sketch 52.6 (67491) - http://www.bohemiancoding.com/sketch -->
    <title>Group 5</title>
    <desc>Created with Sketch.</desc>
    <g id="Page-1" stroke="none" stroke-width="1" fill="none" fill-rule="evenodd">
        <g id="Desktop-HD" transform="translate(-1013.000000, -4157.000000)">
            <g id="Group-5" transform="translate(1013.000000, 4157.000000)">
                <circle id="Oval-Copy-2" fill="#F7F7F7" fill-rule="nonzero" cx="67" cy="67" r="67"></circle>
                <g id="reload" transform="translate(76.000000, 47.000000)">
                    <path d="M21.7372826,22.6424903 C38.9748017,7.39378672 64.7714763,7.16062612 82.247412,21.0803143 L68.3954084,21.5932676 C66.607284,21.6632158 65.2244678,23.1088116 65.2959928,24.8575161 C65.3675177,26.5595885 66.7980173,27.888604 68.5146167,27.888604 C68.5623,27.888604 68.5861417,27.888604 68.633825,27.888604 L89.9005844,27.119174 C91.6410255,27.0492258 93,25.6735782 93,23.9715058 L93,23.7383452 C93,23.6917131 93,23.668397 93,23.6217649 L93,23.5984488 L92.2132253,3.03368339 C92.1417003,1.28497885 90.6396758,-0.067352665 88.8753931,0.00259551678 C87.0872687,0.0725436985 85.7044525,1.51813945 85.7759775,3.266844 L86.2766523,16.1606255 C77.6221302,9.23575551 66.9649089,5.22539309 55.5685961,4.66580763 C41.4543342,3.96632582 27.8884305,8.69948612 17.4219424,17.9792782 C3.02158065,30.7331634 -3.08188393,50.1321258 1.49571451,68.5984458 C1.85333939,70.0440415 3.16463061,71 4.61897178,71 C4.88123002,71 5.11964661,70.9766839 5.38190485,70.9067358 C7.09850427,70.4870467 8.1713789,68.7849742 7.74222905,67.1062179 C3.73683041,50.8782397 9.07736192,33.8341994 21.7372826,22.6424903 Z" id="Path" fill="#000000"></path>
                    <path d="M105.509482,45.400946 C105.081824,43.7221113 103.34743,42.6728395 101.636795,43.0925482 C99.9261601,43.5122569 98.8570133,45.2144088 99.284672,46.8932436 C103.299912,63.1219797 97.9541782,80.166816 85.3382455,91.3590478 C76.4762062,99.2169272 65.3570791,103.087574 54.2854697,103.087574 C43.7127954,103.087574 33.16388,99.5666844 24.658223,92.6181739 L38.6284083,91.3823649 C40.3865608,91.2191449 41.6932959,89.7035302 41.5269841,87.954744 C41.3606724,86.2059577 39.8163492,84.9468317 38.0344378,85.1100517 L16.9128481,86.9754237 C15.1546955,87.1386437 13.8479605,88.6542584 14.0142723,90.4030447 L15.9149777,111.131991 C16.0575307,112.764191 17.4593009,114 19.0986594,114 C19.1936947,114 19.28873,114 19.3837652,113.976683 C21.1419178,113.813463 22.4486528,112.297848 22.2823411,110.549062 L21.1419178,97.934484 C29.766369,104.789726 40.3390432,108.776959 51.624482,109.33657 C52.5273171,109.383204 53.4301522,109.406522 54.3092285,109.406522 C67.4003375,109.406522 79.8499585,104.696457 89.6385917,96.0224777 C103.988918,83.2679969 110.071176,63.8914456 105.509482,45.400946 Z" id="Path" fill="#F0A93F"></path>
                </g>
            </g>
        </g>
    </g>
</svg>