<?xml version="1.0" encoding="UTF-8"?>
<svg width="41px" height="42px" viewBox="0 0 41 42" version="1.1" xmlns="http://www.w3.org/2000/svg" xmlns:xlink="http://www.w3.org/1999/xlink">
    <!-- Generator: Sketch 52.6 (67491) - http://www.bohemiancoding.com/sketch -->
    <title>stamp 2 copy 2</title>
    <desc>Created with Sketch.</desc>
    <g id="Page-1" stroke="none" stroke-width="1" fill="none" fill-rule="evenodd" opacity="0.298921131">
        <g id="Desktop-HD" transform="translate(-365.000000, -6259.000000)" fill="#000000">
            <g id="stamp-2-copy-2" transform="translate(365.000000, 6259.000000)">
                <g id="stamp">
                    <path d="M39.9527006,19.529038 C39.7667646,19.3010637 39.7422739,18.9775508 39.8921183,18.723221 C40.4918181,17.741811 40.6709869,16.5515342 40.3880549,15.4310994 C40.1102789,14.3083584 39.3797472,13.3589044 38.3778845,12.8186183 C38.1252437,12.6743223 37.9937673,12.3788121 38.0533828,12.0895613 C38.0862519,11.930111 38.1110648,11.769343 38.1278216,11.6075866 C38.1581127,11.3143825 38.0047236,11.0333679 37.7443489,10.9058735 C37.4842964,10.7787086 37.1739735,10.8324077 36.9696696,11.0406156 L33.7294863,14.3528332 L14.0067435,34.5153897 L10.7639824,37.8305723 C10.5603229,38.0397685 10.5074746,38.3576807 10.632506,38.6235411 C10.7575374,38.8897308 11.0327355,39.0465456 11.3198566,39.0145896 C11.4777571,38.9974586 11.6346909,38.9720915 11.7900135,38.9388178 C12.0732677,38.8775414 12.3626446,39.0116246 12.5037883,39.2702372 C13.0319495,40.2948042 13.9606624,41.0419804 15.0585544,41.3262896 C16.1525795,41.6142225 17.3142762,41.4317112 18.2732803,40.8219127 C18.5259211,40.6634507 18.8497784,40.6898061 19.074706,40.8874718 C19.8242502,41.5648061 20.7903436,41.9387237 21.7905951,41.9390531 C21.9165933,41.9390531 22.0429137,41.9334526 22.1695564,41.9209337 C23.3006398,41.8069466 24.3373051,41.2267978 25.0410903,40.3142414 C25.2260594,40.0809959 25.5347711,39.9923757 25.8115804,40.0928558 C26.8659693,40.517837 28.0453895,40.4792922 29.0710985,39.9861164 C30.1009966,39.4879989 30.8879213,38.5830196 31.2510925,37.4790568 C31.3513109,37.1907944 31.6197419,36.9993882 31.9187862,37.0026826 C33.0492251,37.0184959 34.1390609,36.5707831 34.9443536,35.7593656 C35.7428792,34.9420181 36.1827449,33.8285015 36.1630879,32.6734751 C36.1617989,32.366105 36.3496683,32.0910203 36.6322781,31.9859281 C37.7101909,31.6133283 38.5934671,30.8088291 39.0800584,29.7572478 C39.5611717,28.711267 39.599519,27.5091303 39.1863996,26.4331702 C39.0848921,26.1468844 39.1728653,25.8263366 39.4052047,25.6355893 C40.295248,24.9147685 40.8607897,23.8552805 40.9719646,22.6999247 C41.0754055,21.5445689 40.7064339,20.3967903 39.9527006,19.529038 Z M30.6107897,31.3300075 C26.7154804,35.3459149 20.8947513,36.6864176 15.6914456,34.7654367 L16.7861151,33.6456607 C18.002916,34.0251788 19.2674092,34.2202089 20.539314,34.2251506 C24.6215261,34.2109845 28.4575422,32.2267508 30.8869545,28.8730233 C33.3166892,25.5189665 34.0543103,21.1894296 32.8774679,17.1929593 L33.9673038,16.0787839 C35.8456756,21.397308 34.5363903,27.3463855 30.6107897,31.3300075 Z M31.7689417,18.328878 C32.6747752,22.3039345 31.5088893,26.4756683 28.6856922,29.3612575 C25.8624953,32.2471762 21.7822168,33.4384413 17.8939968,32.5117188 L31.7689417,18.328878 Z M38.5676874,24.5345915 C37.8587462,25.1032097 37.5954713,26.0783603 37.918684,26.9388649 C38.200327,27.6563912 38.175514,28.4622082 37.8503678,29.1602974 C37.5245772,29.86827 36.9316446,30.4105327 36.2072356,30.6635448 C35.3555395,30.9577372 34.7870976,31.7803558 34.8006319,32.6991717 C34.8160997,33.4667733 34.5286564,34.208349 34.0030731,34.7565418 C33.4778122,35.305064 32.7582369,35.6140813 32.0074038,35.6137519 L31.9162082,35.6137519 C31.0322875,35.6150697 30.2466518,36.1902767 29.9614641,37.0458396 C29.7155905,37.7874153 29.1851735,38.3949077 28.4920224,38.7283038 C27.8069275,39.0626883 27.0164582,39.0877259 26.3120284,38.7981457 C25.4738667,38.4713385 24.5251745,38.7401638 23.9705891,39.4609845 C23.4981766,40.0724303 22.8024475,40.4608434 22.0442027,40.5372741 C21.2962698,40.6097515 20.5525261,40.36234 19.9895624,39.8540098 C19.6199462,39.5130365 19.1394774,39.3252541 18.6419297,39.3275602 C18.259746,39.3275602 17.8849739,39.4359469 17.5595055,39.6408603 C16.918236,40.0552993 16.137434,40.1785109 15.4040021,39.9805159 C14.6763707,39.792404 14.0608809,39.2972515 13.7102772,38.61827 C13.5066178,38.229198 13.1853386,37.918204 12.794132,37.7310805 L14.6354455,35.8430441 C20.4619749,38.246988 27.1292442,36.8587161 31.5717273,32.3166887 C36.0145325,27.7746611 37.3721548,20.9581607 35.0207259,15.0021649 L36.8694511,13.1118223 C37.0518423,13.5117659 37.356687,13.8402203 37.7372595,14.0477692 C38.4010862,14.4068618 38.8850996,15.0360975 39.0700689,15.7799793 C39.2634165,16.5314383 39.1419297,17.3316547 38.7346107,17.9879047 C38.260587,18.7673664 38.3437264,19.7728257 38.939237,20.4600433 C39.438396,21.0365682 39.6826585,21.7982399 39.6143423,22.5648532 C39.540548,23.3397026 39.161909,24.0509695 38.5651094,24.5345915 L38.5676874,24.5345915 Z" id="Shape" fill-rule="nonzero"></path>
                    <path d="M1.09628077,23.2530591 C0.497225561,24.2347986 0.318379024,25.4247459 0.601955483,26.5451807 C0.879409247,27.6675923 1.60929636,28.6170463 2.61083694,29.1576619 C2.86347778,29.3019578 2.99495414,29.597468 2.93501635,29.8867188 C2.9021473,30.0461691 2.8773343,30.2069371 2.86089981,30.3686936 C2.83060865,30.6618976 2.98399774,30.9429123 3.24405026,31.0704066 C3.5041027,31.1975715 3.8147479,31.1438724 4.01905181,30.9356646 L7.25891289,27.6234469 L26.9839113,7.45858434 L30.2224834,4.1470256 C30.426465,3.93782942 30.4789912,3.62024659 30.3539597,3.35405683 C30.2292505,3.08786707 29.9537302,2.93105231 29.6666091,2.96300824 C29.5087085,2.98013935 29.3517747,3.00550642 29.1964522,3.03878012 C28.9131979,3.10038594 28.623821,2.96597329 28.4826773,2.70736065 C27.9548384,1.6834526 27.0274145,0.936276313 25.9298447,0.651308337 C24.8361419,0.362387048 23.6741228,0.54456888 22.7151188,1.15568524 C22.462478,1.3144767 22.1386208,1.28779177 21.9140153,1.09012611 C21.0668307,0.322194988 19.9463814,-0.0527108434 18.819165,0.0546875422 C17.6880816,0.168674699 16.6510941,0.748823398 15.9476311,1.66137992 C15.7623396,1.89429598 15.4539502,1.98291606 15.1771409,1.88276546 C14.1227521,1.4571254 12.9430096,1.49567018 11.9173007,1.98917549 C10.8877248,2.48762239 10.1004779,3.39260161 9.73730663,4.49656436 C9.64675553,4.79207451 9.37220196,4.98776355 9.06961297,4.97293865 C7.93885186,4.95448986 6.84804925,5.4018731 6.04307876,6.21394959 C5.24423097,7.03228535 4.80468754,8.14711969 4.82563351,9.30280501 C4.82660019,9.6101751 4.63873084,9.88525983 4.35612114,9.99035201 C3.2785306,10.3629518 2.39493209,11.167451 1.90834063,12.2190323 C1.42754971,13.2650132 1.38920242,14.4671498 1.80232172,15.5431099 C1.903507,15.8293957 1.81585609,16.1499436 1.58351668,16.3406909 C0.69347334,17.0615117 0.127931632,18.1209996 0.0167567907,19.2763554 C-0.085395163,20.4313817 0.284543217,21.5785015 1.0385988,22.4452655 C1.22485693,22.6742281 1.24805864,22.9987293 1.09628077,23.2530591 Z M10.3776094,10.6469315 C14.273241,6.63168294 20.0936478,5.29118033 25.2969536,7.21150222 L24.2071177,8.3293016 C19.6512041,6.92225151 14.7076286,8.19126506 11.3424139,11.6313064 C7.97687685,15.0716773 6.73526312,20.1253294 8.11125348,24.7829914 L7.01787282,25.9011201 C5.1388566,20.5809488 6.44975323,14.6295652 10.3776094,10.6462726 L10.3776094,10.6469315 Z M9.21977964,23.648061 C8.31330173,19.6726751 9.47918763,15.5006118 12.3027068,12.6146932 C15.1259039,9.72844499 19.2068269,8.53750943 23.0953691,9.46456135 L9.21977964,23.648061 Z M2.42071177,17.4423475 C3.12997514,16.8737293 3.39325008,15.8985787 3.07003743,15.0384036 C2.78839441,14.3205478 2.8128851,13.5147308 3.13803127,12.8166416 C3.46414428,12.1086691 4.05707688,11.5664062 4.78116352,11.3133942 C5.63318188,11.0192018 6.20162378,10.1962538 6.18808949,9.27710843 C6.17262169,8.50950682 6.45974287,7.76793112 6.985326,7.21973835 C7.51090921,6.67121607 8.23016222,6.3621988 8.98131761,6.36252822 L9.07251316,6.36252822 C9.9564339,6.36121045 10.7417474,5.7856739 11.0269351,4.93044055 C11.2740977,4.18886486 11.8054813,3.58203123 12.4992769,3.24929407 C13.1843718,2.91490964 13.9748413,2.88987199 14.6792709,3.1794522 C15.5171105,3.50625943 16.4654804,3.23776355 17.0200657,2.51727219 C17.4924783,1.90615583 18.1882073,1.51774287 18.9464522,1.44131214 C19.6943851,1.36850523 20.4381288,1.61591677 21.0010925,2.12457641 C21.6752311,2.73865773 22.6645262,2.8253012 23.4311494,2.33739648 C24.0724189,1.92328694 24.8532209,1.80040472 25.5866527,1.99774096 C26.3142842,2.18618223 26.9297739,2.68100523 27.2803776,3.35998684 C27.484037,3.74905873 27.8053163,4.06038213 28.1965229,4.2471762 L26.3490867,6.13751887 C20.5228795,3.73126887 13.8543212,5.11855231 9.41151601,9.66156817 C4.96903295,14.2042545 3.61334411,21.0220727 5.96799547,26.9777391 L4.11927033,28.8644578 C3.93655684,28.4645143 3.63203441,28.1360598 3.25113963,27.9285109 C2.58763523,27.5694183 2.10362173,26.9401826 1.9186525,26.1963008 C1.72498269,25.4448419 1.8464694,24.6446254 2.25378831,23.9883754 C2.72781216,23.2089138 2.64467274,22.2034544 2.04948441,21.5159074 C1.5500031,20.939712 1.30574069,20.1780403 1.37437907,19.4114269 C1.44817346,18.6365775 1.82681242,17.9253106 2.42361196,17.4416887 L2.42071177,17.4423475 Z" id="Shape" fill-rule="nonzero"></path>
                    <path d="M10.0956442,35.9036615 C10.3183161,36.013366 10.5812689,35.9912933 10.7836393,35.846009 C10.9856876,35.7007248 11.094929,35.4549604 11.0691493,35.2039251 C11.0436919,34.9525602 10.886758,34.7354574 10.6598969,34.6359658 L5.36185081,32.17404 C5.1034095,32.0541227 4.79953161,32.1107869 4.59877234,32.3157003 C4.3983353,32.5206137 4.342909,32.8312782 4.45988431,33.0954914 L6.86931745,38.5125189 C6.96502456,38.7467526 7.17802913,38.9091679 7.42486951,38.9361822 C7.67170997,38.963526 7.91371672,38.851186 8.05582717,38.6429781 C8.19825985,38.4350998 8.21856137,38.1642978 8.10931996,37.9366528 L7.70038984,37.0214608 L9.19915589,35.4892225 L10.0956442,35.9036615 Z M7.09811213,35.667451 L6.45039768,34.2096668 L7.87536942,34.8721762 L7.09811213,35.667451 Z" id="Shape" fill-rule="nonzero"></path>
                    <path d="M12.3049626,33.9965173 C12.5804829,33.9968468 12.8292568,33.8271837 12.9349535,33.5669239 C13.0403279,33.3066642 12.9823236,33.0072007 12.7873648,32.8078878 L11.3417694,31.3300075 L11.8241716,30.8374906 C12.6220526,30.0211314 12.6217304,28.6980893 11.8232048,27.882389 C11.0250016,27.0666887 9.73086171,27.0670181 8.93298068,27.8830478 L8.45122292,28.3755648 C8.19568188,28.6368129 8.05196022,28.9912933 8.05196022,29.3605986 C8.05196022,29.7302334 8.19568188,30.0847139 8.45122292,30.345962 L9.88876228,31.8146179 L9.89617396,31.8228539 L9.90423009,31.8314195 L11.8232048,33.7932511 C11.9511365,33.9237104 12.1245048,33.9968468 12.3049626,33.9965173 Z M10.8600116,29.8527861 L10.3776094,30.3449737 L9.41441621,29.3602692 L9.89617396,28.8677522 C10.0682533,28.6918298 10.3189607,28.6229763 10.5542002,28.6872177 C10.7894397,28.7517884 10.97312,28.9395708 11.0362802,29.1797345 C11.0994404,29.4202278 11.032091,29.6765342 10.8600116,29.8527861 Z" id="Shape" fill-rule="nonzero"></path>
                    <path d="M16.1587022,30.0567112 C16.4342225,30.0567112 16.6826741,29.8870482 16.7880486,29.6267884 C16.893423,29.3665286 16.8350965,29.0670652 16.64046,28.8677522 L15.195509,27.389872 L15.6772667,26.8976845 C16.4516238,26.0777014 16.4406675,24.7747552 15.6524538,23.9686088 C14.8639179,23.1627918 13.5891128,23.1512613 12.7873648,23.9432418 L12.3049626,24.4357586 C11.7732567,24.9796687 11.7732567,25.8612575 12.3049626,26.4051676 L15.6772667,29.8527861 C15.8048762,29.9832455 15.9782445,30.0567112 16.1587022,30.0567112 Z M14.7137513,25.91298 L14.2323158,26.4051676 L13.2691225,25.4204631 L13.7505581,24.9279462 C14.0180222,24.6640625 14.4427424,24.6680159 14.7056951,24.9365117 C14.9683255,25.2050075 14.9721926,25.6395426 14.7137513,25.91298 Z" id="Shape" fill-rule="nonzero"></path>
                    <path d="M22.6203785,23.4507248 C22.6203785,23.0662651 22.3155338,22.7542827 21.9391505,22.7542827 L19.7066304,22.7542827 C20.3646567,21.8812594 20.2460702,20.6359658 19.4359437,19.909215 C18.6258174,19.1821347 17.4025717,19.2233152 16.6411044,20.0034356 L16.159669,20.4956231 C15.6276408,21.0395331 15.6276408,21.9214514 16.159669,22.4653614 L19.5316509,25.91298 C19.8000817,26.1699454 20.219646,26.1630271 20.4796985,25.8971668 C20.7394288,25.630977 20.7461959,25.2020426 20.4941996,24.9279462 L19.7304766,24.1471668 L21.9391505,24.1471668 C22.3155338,24.1471668 22.6203785,23.835514 22.6203785,23.4507248 Z M18.5678131,21.9728445 L18.0860554,22.4660203 L17.1222177,21.480657 L17.6036532,20.9881401 C17.7757325,20.8122177 18.0267621,20.7433641 18.2620017,20.8076054 C18.496919,20.8718468 18.6809215,21.0596291 18.7437595,21.3001224 C18.8069196,21.5402861 18.7398924,21.7969221 18.5678131,21.9728445 Z" id="Shape" fill-rule="nonzero"></path>
                    <path d="M25.3114547,20.9881401 C26.1074022,20.171122 26.1074022,18.8500564 25.3114547,18.0330384 L23.384746,16.0642884 C22.5762308,15.2742846 21.303037,15.2742846 20.4941996,16.0642884 C19.6963185,16.8799887 19.6963185,18.2027014 20.4941996,19.0184017 L22.4209082,20.9881401 C22.8040588,21.3801769 23.3241637,21.6002448 23.8661815,21.6002448 C24.4081992,21.6002448 24.9279819,21.3801769 25.3114547,20.9881401 Z M21.457715,18.0330384 C21.2804798,17.8581043 21.2095856,17.5991623 21.2717791,17.355704 C21.3342948,17.1122459 21.5202308,16.9221574 21.7583705,16.8582455 C21.9965103,16.794663 22.2497957,16.8671405 22.4209082,17.0483339 L24.3472947,19.0177429 C24.5196963,19.1936653 24.5870457,19.4503012 24.5238855,19.6907944 C24.4610475,19.9309582 24.2773673,20.1187406 24.04245,20.1833113 C23.8072105,20.2478821 23.5565031,20.179358 23.3841015,20.0034356 L21.457715,18.0330384 Z" id="Shape" fill-rule="nonzero"></path>
                    <path d="M28.6834366,17.252259 C28.928988,17.252259 29.1552047,17.1171875 29.2760469,16.898767 C29.3968891,16.6806758 29.3933445,16.4128389 29.2673463,16.1977127 L26.3774444,11.2725433 C26.1837746,10.9427711 25.765177,10.8357022 25.4426087,11.0340267 C25.1200405,11.2320219 25.0153106,11.659968 25.2093027,11.9897402 L26.6935677,14.5257907 L24.2138849,13.0037651 C23.8913166,12.8060994 23.4727191,12.9128389 23.2793715,13.242611 C23.0857017,13.5727127 23.1904316,14.0003294 23.5129999,14.1983245 L28.3292882,17.1534262 C28.4365961,17.2186558 28.5590496,17.2529179 28.6834366,17.252259 Z" id="Path"></path>
                    <path d="M31.5739829,14.2978163 C31.7525073,14.2978163 31.9236198,14.2263272 32.050907,14.0988328 L33.9972727,12.1485316 C34.2660259,11.8793769 34.2705373,11.438253 34.0072623,11.1634978 C33.7439874,10.8887425 33.3125,10.8841303 33.0434246,11.153285 L31.5788166,12.6199643 L30.6101453,11.6303182 L31.5739829,10.6456137 C31.7512183,10.4706796 31.8221124,10.2117376 31.7599189,9.96827933 C31.6974032,9.72482118 31.5114673,9.53473272 31.2733275,9.47082078 C31.0351877,9.40723835 30.7819024,9.47971576 30.6107897,9.66090924 L29.646952,10.6456137 L28.6834366,9.6602504 L30.1283875,8.18302901 C30.3868288,7.90959147 30.3829618,7.47538594 30.1203314,7.20656064 C29.8573787,6.93806476 29.4326585,6.93411145 29.1651942,7.19799508 L27.2388078,9.16839236 C26.9726327,9.44051205 26.9726327,9.88130643 27.2388078,10.1530968 L29.1651942,12.1228351 L31.0925475,14.0932323 C31.2201569,14.2240211 31.3935252,14.2978163 31.5739829,14.2978163 Z" id="Path"></path>
                    <path d="M35.4274004,10.3573513 C35.6078581,10.3573513 35.7812264,10.2838855 35.9088358,10.1530968 L36.3905936,9.66090924 C37.4543275,8.57308925 37.4543275,6.80958212 36.3905936,5.72176205 L35.4274004,4.73672812 C34.3630219,3.64923755 32.6383614,3.64923755 31.5739829,4.73672812 L31.0925475,5.22924508 C30.8266946,5.50136486 30.8266946,5.94215924 31.0925475,6.21394959 L34.9456426,10.1530968 C35.073252,10.2838855 35.2466203,10.3573513 35.4274004,10.3573513 Z M34.4638849,5.72176205 L35.4274004,6.70646647 C35.9591062,7.25037651 35.9591062,8.13196536 35.4274004,8.67620482 L32.5374984,5.72176205 C33.0766159,5.19597139 33.9247674,5.19597139 34.4638849,5.72176205 Z" id="Shape" fill-rule="nonzero"></path>
                </g>
            </g>
        </g>
    </g>
</svg>